<?xml version="1.0" encoding="UTF-8" standalone="no"?>
<!DOCTYPE svg PUBLIC "-//W3C//DTD SVG 1.1//EN" "http://www.w3.org/Graphics/SVG/1.1/DTD/svg11.dtd">
<!-- Created with Vectornator (http://vectornator.io/) -->
<svg height="100%" stroke-miterlimit="10" style="fill-rule:nonzero;clip-rule:evenodd;stroke-linecap:round;stroke-linejoin:round;" version="1.1" viewBox="0 0 1356.11 309.465" width="100%" xml:space="preserve" xmlns="http://www.w3.org/2000/svg" xmlns:vectornator="http://vectornator.io" xmlns:xlink="http://www.w3.org/1999/xlink">
<defs/>
<g id="Main" vectornator:layerName="Main">
<g opacity="1">
<path d="M374.207 158.584C371.391 158.584 368.639 158.498 365.951 158.328C363.263 158.157 360.618 157.901 358.015 157.56C355.413 157.218 352.917 156.834 350.527 156.408C348.138 155.981 345.834 155.469 343.615 154.872L343.615 135.16C346.517 135.416 349.653 135.629 353.023 135.8C356.394 135.97 359.807 136.098 363.263 136.184C366.719 136.269 369.941 136.312 372.927 136.312C375.743 136.312 378.09 136.098 379.967 135.672C381.845 135.245 383.253 134.562 384.191 133.624C385.13 132.685 385.599 131.405 385.599 129.784L385.599 128.248C385.599 126.37 384.938 124.962 383.615 124.024C382.293 123.085 380.735 122.616 378.943 122.616L372.159 122.616C362.261 122.616 354.751 120.44 349.631 116.088C344.511 111.736 341.951 104.44 341.951 94.2003L341.951 89.9763C341.951 80.5893 344.767 73.5706 350.399 68.92C356.031 64.2693 364.138 61.944 374.719 61.944C378.73 61.944 382.506 62.136 386.047 62.52C389.589 62.904 392.917 63.3733 396.031 63.928C399.146 64.4826 401.941 65.0586 404.415 65.656L404.415 85.3683C400.49 85.0263 396.074 84.7493 391.167 84.5363C386.261 84.3226 381.802 84.216 377.791 84.216C375.402 84.216 373.269 84.3866 371.391 84.7283C369.514 85.0693 368.063 85.7523 367.039 86.7763C366.015 87.8003 365.503 89.2933 365.503 91.2563L365.503 92.5363C365.503 94.6693 366.186 96.2903 367.551 97.4003C368.917 98.5093 371.007 99.0643 373.823 99.0643L382.271 99.0643C388.245 99.0643 393.215 100.194 397.183 102.456C401.151 104.717 404.138 107.789 406.143 111.672C408.149 115.554 409.151 119.97 409.151 124.92L409.151 129.144C409.151 137.25 407.743 143.437 404.927 147.704C402.111 151.97 398.101 154.85 392.895 156.344C387.69 157.837 381.461 158.584 374.207 158.584Z" fill="#ffffff" fill-rule="nonzero" opacity="1" stroke="none"/>
<path d="M420.799 157.816L420.799 62.712L445.631 62.712L445.631 157.816L420.799 157.816Z" fill="#ffffff" fill-rule="nonzero" opacity="1" stroke="none"/>
<path d="M484.415 157.816C478.698 157.816 474.005 156.962 470.335 155.256C466.666 153.549 463.978 150.861 462.271 147.192C460.565 143.522 459.711 138.829 459.711 133.112L459.711 62.712L484.543 62.712L484.543 128.888C484.543 130.338 484.778 131.576 485.247 132.6C485.717 133.624 486.463 134.37 487.487 134.84C488.511 135.309 489.749 135.544 491.199 135.544L518.847 135.544L518.847 157.816L484.415 157.816Z" fill="#ffffff" fill-rule="nonzero" opacity="1" stroke="none"/>
<path d="M547.007 157.816L518.847 62.712L544.575 62.712L562.623 130.808L580.671 62.712L606.143 62.712L577.983 157.816L547.007 157.816Z" fill="#ffffff" fill-rule="nonzero" opacity="1" stroke="none"/>
<path d="M635.711 158.584C633.663 158.584 631.21 158.37 628.351 157.944C625.493 157.517 622.719 156.578 620.031 155.128C617.343 153.677 615.103 151.437 613.311 148.408C611.519 145.378 610.623 141.218 610.623 135.928L610.623 86.2643C610.623 81.656 611.349 77.816 612.799 74.744C614.25 71.672 616.127 69.2613 618.431 67.512C620.735 65.7626 623.295 64.5253 626.111 63.8C628.927 63.0746 631.658 62.712 634.303 62.712C641.471 62.712 647.637 62.8186 652.799 63.032C657.962 63.2453 662.442 63.48 666.239 63.736C670.037 63.992 673.386 64.2906 676.287 64.632L676.287 85.6243L641.983 85.6243C639.85 85.6243 638.229 86.0933 637.119 87.0323C636.01 87.9703 635.455 89.3783 635.455 91.2563L635.455 99.1923L669.887 100.472L669.887 120.184L635.455 121.464L635.455 128.632C635.455 130.168 635.69 131.426 636.159 132.408C636.629 133.389 637.29 134.114 638.143 134.584C638.997 135.053 639.935 135.288 640.959 135.288L676.287 135.288L676.287 156.28C672.618 156.792 668.437 157.218 663.743 157.56C659.05 157.901 654.271 158.157 649.407 158.328C644.543 158.498 639.978 158.584 635.711 158.584Z" fill="#ffffff" fill-rule="nonzero" opacity="1" stroke="none"/>
<path d="M687.935 157.816L687.935 62.712L728.511 62.712C732.693 62.712 736.533 63.224 740.031 64.248C743.53 65.272 746.559 67 749.119 69.432C751.679 71.864 753.663 75.128 755.071 79.224C756.479 83.32 757.183 88.4823 757.183 94.7123C757.183 98.6373 756.842 102.05 756.159 104.952C755.477 107.853 754.559 110.306 753.407 112.312C752.255 114.317 750.89 116.002 749.311 117.368C747.733 118.733 746.047 119.928 744.255 120.952L760.767 157.816L735.551 157.816L722.239 125.048C721.471 125.048 720.682 125.048 719.871 125.048C719.061 125.048 718.271 125.048 717.503 125.048C716.735 125.048 715.946 125.048 715.135 125.048C714.325 125.048 713.535 125.048 712.767 125.048L712.767 157.816L687.935 157.816ZM712.767 105.336L724.031 105.336C725.397 105.336 726.591 105.144 727.615 104.76C728.639 104.376 729.514 103.757 730.239 102.904C730.965 102.05 731.498 100.962 731.839 99.6403C732.181 98.3173 732.351 96.7173 732.351 94.8403C732.351 92.9623 732.181 91.3843 731.839 90.1043C731.498 88.8243 730.965 87.8213 730.239 87.0963C729.514 86.3703 728.639 85.8373 727.615 85.4963C726.591 85.1543 725.397 84.9843 724.031 84.9843L712.767 84.9843L712.767 105.336Z" fill="#ffffff" fill-rule="nonzero" opacity="1" stroke="none"/>
<path d="M831.679 158.584C828.863 158.584 826.111 158.498 823.423 158.328C820.735 158.157 818.09 157.901 815.487 157.56C812.885 157.218 810.389 156.834 807.999 156.408C805.61 155.981 803.306 155.469 801.087 154.872L801.087 135.16C803.989 135.416 807.125 135.629 810.495 135.8C813.866 135.97 817.279 136.098 820.735 136.184C824.191 136.269 827.413 136.312 830.399 136.312C833.215 136.312 835.562 136.098 837.439 135.672C839.317 135.245 840.725 134.562 841.663 133.624C842.602 132.685 843.071 131.405 843.071 129.784L843.071 128.248C843.071 126.37 842.41 124.962 841.087 124.024C839.765 123.085 838.207 122.616 836.415 122.616L829.631 122.616C819.733 122.616 812.223 120.44 807.103 116.088C801.983 111.736 799.423 104.44 799.423 94.2003L799.423 89.9763C799.423 80.5893 802.239 73.5706 807.871 68.92C813.503 64.2693 821.61 61.944 832.191 61.944C836.202 61.944 839.978 62.136 843.519 62.52C847.061 62.904 850.389 63.3733 853.503 63.928C856.618 64.4826 859.413 65.0586 861.887 65.656L861.887 85.3683C857.962 85.0263 853.546 84.7493 848.639 84.5363C843.733 84.3226 839.274 84.216 835.263 84.216C832.874 84.216 830.741 84.3866 828.863 84.7283C826.986 85.0693 825.535 85.7523 824.511 86.7763C823.487 87.8003 822.975 89.2933 822.975 91.2563L822.975 92.5363C822.975 94.6693 823.658 96.2903 825.023 97.4003C826.389 98.5093 828.479 99.0643 831.295 99.0643L839.743 99.0643C845.717 99.0643 850.687 100.194 854.655 102.456C858.623 104.717 861.61 107.789 863.615 111.672C865.621 115.554 866.623 119.97 866.623 124.92L866.623 129.144C866.623 137.25 865.215 143.437 862.399 147.704C859.583 151.97 855.573 154.85 850.367 156.344C845.162 157.837 838.933 158.584 831.679 158.584Z" fill="#ffffff" fill-rule="nonzero" opacity="1" stroke="none"/>
<path d="M915.519 158.456C910.314 158.456 905.386 158.029 900.735 157.176C896.085 156.322 891.967 154.744 888.383 152.44C884.799 150.136 882.005 146.893 879.999 142.712C877.994 138.53 876.991 133.112 876.991 126.456L876.991 62.712L901.823 62.712L901.823 126.328C901.823 128.546 902.357 130.381 903.423 131.832C904.49 133.282 906.047 134.37 908.095 135.096C910.143 135.821 912.618 136.184 915.519 136.184C918.421 136.184 920.895 135.821 922.943 135.096C924.991 134.37 926.549 133.282 927.615 131.832C928.682 130.381 929.215 128.546 929.215 126.328L929.215 62.712L954.047 62.712L954.047 126.456C954.047 133.112 953.045 138.53 951.039 142.712C949.034 146.893 946.239 150.136 942.655 152.44C939.071 154.744 934.975 156.322 930.367 157.176C925.759 158.029 920.81 158.456 915.519 158.456Z" fill="#ffffff" fill-rule="nonzero" opacity="1" stroke="none"/>
<path d="M966.847 157.816L966.847 62.712L1007.42 62.712C1011.61 62.712 1015.45 63.224 1018.94 64.248C1022.44 65.272 1025.47 67 1028.04 69.432C1030.6 71.864 1032.58 75.128 1033.99 79.224C1035.4 83.32 1036.1 88.4823 1036.1 94.7123C1036.1 98.6373 1035.76 102.05 1035.08 104.952C1034.39 107.853 1033.48 110.306 1032.32 112.312C1031.17 114.317 1029.81 116.002 1028.23 117.368C1026.65 118.733 1024.96 119.928 1023.17 120.952L1039.68 157.816L1014.46 157.816L1001.15 125.048C1000.38 125.048 999.594 125.048 998.783 125.048C997.973 125.048 997.183 125.048 996.415 125.048C995.647 125.048 994.858 125.048 994.047 125.048C993.237 125.048 992.447 125.048 991.679 125.048L991.679 157.816L966.847 157.816ZM991.679 105.336L1002.94 105.336C1004.31 105.336 1005.5 105.144 1006.53 104.76C1007.55 104.376 1008.43 103.757 1009.15 102.904C1009.88 102.05 1010.41 100.962 1010.75 99.6403C1011.09 98.3173 1011.26 96.7173 1011.26 94.8403C1011.26 92.9623 1011.09 91.3843 1010.75 90.1043C1010.41 88.8243 1009.88 87.8213 1009.15 87.0963C1008.43 86.3703 1007.55 85.8373 1006.53 85.4963C1005.5 85.1543 1004.31 84.9843 1002.94 84.9843L991.679 84.9843L991.679 105.336Z" fill="#ffffff" fill-rule="nonzero" opacity="1" stroke="none"/>
<path d="M1048.77 157.816L1048.77 86.2643C1048.77 81.656 1049.5 77.816 1050.95 74.744C1052.4 71.672 1054.28 69.2613 1056.58 67.512C1058.88 65.7626 1061.44 64.5253 1064.26 63.8C1067.08 63.0746 1069.81 62.712 1072.45 62.712C1075.1 62.712 1078.77 62.7333 1083.46 62.776C1088.15 62.8186 1093.25 62.9893 1098.76 63.288C1104.26 63.5866 1109.49 64.0773 1114.44 64.76L1114.44 85.6243L1079.62 85.6243C1077.49 85.6243 1075.95 86.2003 1075.01 87.3523C1074.07 88.5043 1073.6 89.7203 1073.6 91.0003L1073.6 101.752L1108.04 103.032L1108.04 122.744L1073.6 124.024L1073.6 157.816L1048.77 157.816Z" fill="#ffffff" fill-rule="nonzero" opacity="1" stroke="none"/>
<path d="M1148.48 158.584C1146.44 158.584 1143.98 158.37 1141.12 157.944C1138.27 157.517 1135.49 156.578 1132.8 155.128C1130.12 153.677 1127.88 151.437 1126.08 148.408C1124.29 145.378 1123.4 141.218 1123.4 135.928L1123.4 86.2643C1123.4 81.656 1124.12 77.816 1125.57 74.744C1127.02 71.672 1128.9 69.2613 1131.2 67.512C1133.51 65.7626 1136.07 64.5253 1138.88 63.8C1141.7 63.0746 1144.43 62.712 1147.08 62.712C1154.24 62.712 1160.41 62.8186 1165.57 63.032C1170.73 63.2453 1175.21 63.48 1179.01 63.736C1182.81 63.992 1186.16 64.2906 1189.06 64.632L1189.06 85.6243L1154.76 85.6243C1152.62 85.6243 1151 86.0933 1149.89 87.0323C1148.78 87.9703 1148.23 89.3783 1148.23 91.2563L1148.23 99.1923L1182.66 100.472L1182.66 120.184L1148.23 121.464L1148.23 128.632C1148.23 130.168 1148.46 131.426 1148.93 132.408C1149.4 133.389 1150.06 134.114 1150.92 134.584C1151.77 135.053 1152.71 135.288 1153.73 135.288L1189.06 135.288L1189.06 156.28C1185.39 156.792 1181.21 157.218 1176.52 157.56C1171.82 157.901 1167.04 158.157 1162.18 158.328C1157.32 158.498 1152.75 158.584 1148.48 158.584Z" fill="#ffffff" fill-rule="nonzero" opacity="1" stroke="none"/>
<path d="M1200.71 157.816L1200.71 62.712L1241.28 62.712C1245.47 62.712 1249.31 63.224 1252.8 64.248C1256.3 65.272 1259.33 67 1261.89 69.432C1264.45 71.864 1266.44 75.128 1267.84 79.224C1269.25 83.32 1269.96 88.4823 1269.96 94.7123C1269.96 98.6373 1269.61 102.05 1268.93 104.952C1268.25 107.853 1267.33 110.306 1266.18 112.312C1265.03 114.317 1263.66 116.002 1262.08 117.368C1260.51 118.733 1258.82 119.928 1257.03 120.952L1273.54 157.816L1248.32 157.816L1235.01 125.048C1234.24 125.048 1233.45 125.048 1232.64 125.048C1231.83 125.048 1231.04 125.048 1230.28 125.048C1229.51 125.048 1228.72 125.048 1227.91 125.048C1227.1 125.048 1226.31 125.048 1225.54 125.048L1225.54 157.816L1200.71 157.816ZM1225.54 105.336L1236.8 105.336C1238.17 105.336 1239.36 105.144 1240.39 104.76C1241.41 104.376 1242.29 103.757 1243.01 102.904C1243.74 102.05 1244.27 100.962 1244.61 99.6403C1244.95 98.3173 1245.12 96.7173 1245.12 94.8403C1245.12 92.9623 1244.95 91.3843 1244.61 90.1043C1244.27 88.8243 1243.74 87.8213 1243.01 87.0963C1242.29 86.3703 1241.41 85.8373 1240.39 85.4963C1239.36 85.1543 1238.17 84.9843 1236.8 84.9843L1225.54 84.9843L1225.54 105.336Z" fill="#ffffff" fill-rule="nonzero" opacity="1" stroke="none"/>
<path d="M1312.45 158.584C1309.64 158.584 1306.88 158.498 1304.2 158.328C1301.51 158.157 1298.86 157.901 1296.26 157.56C1293.66 157.218 1291.16 156.834 1288.77 156.408C1286.38 155.981 1284.08 155.469 1281.86 154.872L1281.86 135.16C1284.76 135.416 1287.9 135.629 1291.27 135.8C1294.64 135.97 1298.05 136.098 1301.51 136.184C1304.96 136.269 1308.19 136.312 1311.17 136.312C1313.99 136.312 1316.33 136.098 1318.21 135.672C1320.09 135.245 1321.5 134.562 1322.44 133.624C1323.37 132.685 1323.84 131.405 1323.84 129.784L1323.84 128.248C1323.84 126.37 1323.18 124.962 1321.86 124.024C1320.54 123.085 1318.98 122.616 1317.19 122.616L1310.4 122.616C1300.51 122.616 1293 120.44 1287.88 116.088C1282.76 111.736 1280.2 104.44 1280.2 94.2003L1280.2 89.9763C1280.2 80.5893 1283.01 73.5706 1288.64 68.92C1294.28 64.2693 1302.38 61.944 1312.96 61.944C1316.97 61.944 1320.75 62.136 1324.29 62.52C1327.83 62.904 1331.16 63.3733 1334.28 63.928C1337.39 64.4826 1340.19 65.0586 1342.66 65.656L1342.66 85.3683C1338.73 85.0263 1334.32 84.7493 1329.41 84.5363C1324.51 84.3226 1320.05 84.216 1316.04 84.216C1313.65 84.216 1311.51 84.3866 1309.64 84.7283C1307.76 85.0693 1306.31 85.7523 1305.28 86.7763C1304.26 87.8003 1303.75 89.2933 1303.75 91.2563L1303.75 92.5363C1303.75 94.6693 1304.43 96.2903 1305.8 97.4003C1307.16 98.5093 1309.25 99.0643 1312.07 99.0643L1320.52 99.0643C1326.49 99.0643 1331.46 100.194 1335.43 102.456C1339.4 104.717 1342.38 107.789 1344.39 111.672C1346.39 115.554 1347.4 119.97 1347.4 124.92L1347.4 129.144C1347.4 137.25 1345.99 143.437 1343.17 147.704C1340.36 151.97 1336.35 154.85 1331.14 156.344C1325.93 157.837 1319.71 158.584 1312.45 158.584Z" fill="#ffffff" fill-rule="nonzero" opacity="1" stroke="none"/>
</g>
<g opacity="1">
<path d="M342.343 239.484L342.343 188.559L354.895 188.559C359.82 188.559 364.016 189.336 367.483 190.89C370.95 192.444 373.759 194.488 375.911 197.022C378.063 199.557 379.641 202.33 380.645 205.343C381.649 208.355 382.151 211.344 382.151 214.308C382.151 218.182 381.482 221.66 380.143 224.744C378.804 227.829 376.975 230.471 374.656 232.67C372.337 234.87 369.695 236.555 366.73 237.727C363.765 238.898 360.633 239.484 357.334 239.484L342.343 239.484ZM345.858 236.113L356.401 236.113C359.462 236.113 362.331 235.611 365.009 234.607C367.686 233.603 370.041 232.144 372.074 230.232C374.106 228.319 375.696 226.012 376.843 223.31C377.991 220.608 378.565 217.536 378.565 214.093C378.565 211.176 378.075 208.391 377.094 205.737C376.114 203.083 374.644 200.728 372.683 198.672C370.723 196.616 368.308 194.99 365.439 193.795C362.57 192.599 359.223 192.001 355.397 192.001L345.858 192.001L345.858 236.113Z" fill="#ffffff" fill-rule="nonzero" opacity="1" stroke="none"/>
<path d="M393.412 211.439L396.783 211.439L396.783 239.484L393.412 239.484L393.412 211.439ZM392.695 201.111C392.695 200.441 392.958 199.879 393.484 199.425C394.01 198.971 394.584 198.744 395.205 198.744C395.875 198.744 396.448 198.971 396.927 199.425C397.405 199.879 397.644 200.441 397.644 201.111C397.644 201.828 397.405 202.414 396.927 202.868C396.448 203.322 395.875 203.549 395.205 203.549C394.584 203.549 394.01 203.31 393.484 202.832C392.958 202.354 392.695 201.78 392.695 201.111Z" fill="#ffffff" fill-rule="nonzero" opacity="1" stroke="none"/>
<path d="M422.031 253.184C420.453 253.184 418.947 253.005 417.512 252.646C416.078 252.287 414.667 251.678 413.28 250.817C411.894 249.956 410.459 248.833 408.977 247.446L410.985 245.151C413.041 247.111 414.954 248.438 416.723 249.131C418.492 249.825 420.214 250.171 421.887 250.171C424.804 250.171 427.123 249.705 428.845 248.773C430.566 247.84 431.81 246.597 432.575 245.043C433.34 243.489 433.746 241.756 433.794 239.843L433.866 230.734L434.655 231.594C433.698 234.081 431.989 236.113 429.526 237.691C427.064 239.269 424.278 240.058 421.17 240.058C418.54 240.058 416.137 239.401 413.962 238.086C411.786 236.771 410.053 235.001 408.761 232.778C407.47 230.554 406.825 228.08 406.825 225.354C406.825 222.437 407.494 219.879 408.833 217.679C410.172 215.48 411.989 213.746 414.284 212.479C416.58 211.212 419.114 210.579 421.887 210.579C424.47 210.579 426.92 211.248 429.239 212.587C431.558 213.926 433.244 215.695 434.296 217.895L433.866 219.473L434.224 211.439L437.237 211.439L437.237 239.915C437.237 242.21 436.723 244.374 435.695 246.406C434.667 248.438 433.041 250.076 430.817 251.319C428.594 252.562 425.665 253.184 422.031 253.184ZM410.196 225.282C410.196 227.482 410.722 229.478 411.774 231.272C412.826 233.065 414.249 234.499 416.042 235.575C417.835 236.651 419.831 237.189 422.031 237.189C424.135 237.189 426.048 236.723 427.769 235.79C429.49 234.858 430.901 233.603 432.001 232.025C433.101 230.447 433.722 228.749 433.866 226.932L433.866 222.772C433.483 220.955 432.73 219.353 431.606 217.966C430.483 216.58 429.096 215.48 427.446 214.667C425.796 213.854 423.991 213.448 422.031 213.448C419.831 213.448 417.835 213.95 416.042 214.954C414.249 215.958 412.826 217.345 411.774 219.114C410.722 220.883 410.196 222.939 410.196 225.282Z" fill="#ffffff" fill-rule="nonzero" opacity="1" stroke="none"/>
<path d="M450.004 211.439L453.375 211.439L453.375 239.484L450.004 239.484L450.004 211.439ZM449.287 201.111C449.287 200.441 449.55 199.879 450.076 199.425C450.602 198.971 451.176 198.744 451.797 198.744C452.467 198.744 453.04 198.971 453.519 199.425C453.997 199.879 454.236 200.441 454.236 201.111C454.236 201.828 453.997 202.414 453.519 202.868C453.04 203.322 452.467 203.549 451.797 203.549C451.176 203.549 450.602 203.31 450.076 202.832C449.55 202.354 449.287 201.78 449.287 201.111Z" fill="#ffffff" fill-rule="nonzero" opacity="1" stroke="none"/>
<path d="M468.94 199.102L472.383 199.102L472.383 211.798L481.062 211.798L481.062 214.524L472.383 214.524L472.383 239.484L468.94 239.484L468.94 214.524L462.987 214.524L462.987 211.798L468.94 211.798L468.94 199.102Z" fill="#ffffff" fill-rule="nonzero" opacity="1" stroke="none"/>
<path d="M501.073 240.058C498.395 240.058 495.969 239.448 493.793 238.229C491.617 237.01 489.896 235.3 488.629 233.101C487.361 230.901 486.728 228.343 486.728 225.426C486.728 222.318 487.397 219.652 488.736 217.428C490.075 215.205 491.892 213.507 494.187 212.336C496.483 211.164 499.089 210.579 502.006 210.579C504.492 210.579 506.847 211.32 509.071 212.802C511.294 214.284 512.884 216.149 513.84 218.397L513.338 219.401L513.769 211.439L516.781 211.439L516.781 239.484L513.41 239.484L513.41 230.805L514.127 232.096C513.793 233.053 513.219 233.997 512.406 234.93C511.593 235.862 510.601 236.723 509.429 237.512C508.258 238.301 506.967 238.922 505.556 239.377C504.145 239.831 502.651 240.058 501.073 240.058ZM501.79 237.189C503.894 237.189 505.795 236.747 507.493 235.862C509.19 234.977 510.565 233.746 511.617 232.168C512.669 230.59 513.267 228.773 513.41 226.717L513.41 222.7C513.027 220.931 512.274 219.353 511.151 217.966C510.027 216.58 508.652 215.48 507.026 214.667C505.401 213.854 503.631 213.448 501.719 213.448C499.615 213.448 497.678 213.938 495.909 214.918C494.14 215.898 492.729 217.273 491.677 219.042C490.625 220.812 490.099 222.892 490.099 225.282C490.099 227.482 490.625 229.478 491.677 231.272C492.729 233.065 494.152 234.499 495.945 235.575C497.738 236.651 499.686 237.189 501.79 237.189Z" fill="#ffffff" fill-rule="nonzero" opacity="1" stroke="none"/>
<path d="M529.548 184.972L532.92 184.972L532.92 239.484L529.548 239.484L529.548 184.972Z" fill="#ffffff" fill-rule="nonzero" opacity="1" stroke="none"/>
<path d="M569.428 188.559L572.943 188.559L572.943 236.113L600.844 236.113L600.844 239.484L569.428 239.484L569.428 188.559Z" fill="#ffffff" fill-rule="nonzero" opacity="1" stroke="none"/>
<path d="M610.958 211.439L614.329 211.439L614.329 239.484L610.958 239.484L610.958 211.439ZM610.24 201.111C610.24 200.441 610.503 199.879 611.029 199.425C611.555 198.971 612.129 198.744 612.751 198.744C613.42 198.744 613.994 198.971 614.472 199.425C614.95 199.879 615.19 200.441 615.19 201.111C615.19 201.828 614.95 202.414 614.472 202.868C613.994 203.322 613.42 203.549 612.751 203.549C612.129 203.549 611.555 203.31 611.029 202.832C610.503 202.354 610.24 201.78 610.24 201.111Z" fill="#ffffff" fill-rule="nonzero" opacity="1" stroke="none"/>
<path d="M629.893 199.102L633.336 199.102L633.336 211.798L642.015 211.798L642.015 214.524L633.336 214.524L633.336 239.484L629.893 239.484L629.893 214.524L623.94 214.524L623.94 211.798L629.893 211.798L629.893 199.102Z" fill="#ffffff" fill-rule="nonzero" opacity="1" stroke="none"/>
<path d="M662.601 240.058C659.684 240.058 657.102 239.413 654.854 238.121C652.607 236.83 650.849 235.073 649.582 232.85C648.315 230.626 647.682 228.128 647.682 225.354C647.682 222.629 648.351 220.142 649.69 217.895C651.029 215.647 652.834 213.854 655.105 212.515C657.377 211.176 659.899 210.507 662.672 210.507C666.02 210.507 668.829 211.487 671.1 213.448C673.371 215.408 675.009 217.966 676.013 221.122L651.483 230.59L650.479 228.151L672.929 219.401L672.212 220.405C671.399 218.492 670.168 216.843 668.518 215.456C666.868 214.069 664.848 213.376 662.457 213.376C660.305 213.376 658.369 213.902 656.647 214.954C654.926 216.006 653.551 217.416 652.523 219.186C651.495 220.955 650.981 222.963 650.981 225.211C650.981 227.315 651.471 229.275 652.451 231.092C653.432 232.909 654.806 234.368 656.576 235.468C658.345 236.567 660.377 237.117 662.672 237.117C664.202 237.117 665.673 236.83 667.083 236.257C668.494 235.683 669.749 234.942 670.849 234.033L672.571 236.472C671.232 237.524 669.69 238.384 667.944 239.054C666.199 239.723 664.418 240.058 662.601 240.058Z" fill="#ffffff" fill-rule="nonzero" opacity="1" stroke="none"/>
<path d="M688.279 211.439L688.637 220.046L688.207 218.971C688.828 217.249 689.809 215.767 691.148 214.524C692.486 213.28 693.981 212.324 695.63 211.654C697.28 210.985 698.87 210.65 700.4 210.65L700.257 213.95C698.105 213.95 696.156 214.428 694.411 215.384C692.666 216.341 691.279 217.62 690.251 219.222C689.223 220.823 688.709 222.629 688.709 224.637L688.709 239.484L685.338 239.484L685.338 211.439L688.279 211.439Z" fill="#ffffff" fill-rule="nonzero" opacity="1" stroke="none"/>
<path d="M721.129 240.058C718.451 240.058 716.025 239.448 713.849 238.229C711.673 237.01 709.952 235.3 708.685 233.101C707.417 230.901 706.784 228.343 706.784 225.426C706.784 222.318 707.453 219.652 708.792 217.428C710.131 215.205 711.948 213.507 714.243 212.336C716.539 211.164 719.145 210.579 722.062 210.579C724.548 210.579 726.903 211.32 729.127 212.802C731.35 214.284 732.94 216.149 733.896 218.397L733.394 219.401L733.825 211.439L736.837 211.439L736.837 239.484L733.466 239.484L733.466 230.805L734.183 232.096C733.849 233.053 733.275 233.997 732.462 234.93C731.649 235.862 730.657 236.723 729.485 237.512C728.314 238.301 727.023 238.922 725.612 239.377C724.201 239.831 722.707 240.058 721.129 240.058ZM721.846 237.189C723.95 237.189 725.851 236.747 727.549 235.862C729.246 234.977 730.621 233.746 731.673 232.168C732.725 230.59 733.323 228.773 733.466 226.717L733.466 222.7C733.084 220.931 732.33 219.353 731.207 217.966C730.083 216.58 728.708 215.48 727.082 214.667C725.457 213.854 723.687 213.448 721.775 213.448C719.671 213.448 717.734 213.938 715.965 214.918C714.196 215.898 712.785 217.273 711.733 219.042C710.681 220.812 710.155 222.892 710.155 225.282C710.155 227.482 710.681 229.478 711.733 231.272C712.785 233.065 714.208 234.499 716.001 235.575C717.794 236.651 719.742 237.189 721.846 237.189Z" fill="#ffffff" fill-rule="nonzero" opacity="1" stroke="none"/>
<path d="M771.266 236.759C769.975 237.811 768.516 238.624 766.89 239.197C765.265 239.771 763.567 240.058 761.798 240.058C758.929 240.058 756.371 239.424 754.123 238.157C751.876 236.89 750.107 235.157 748.815 232.957C747.524 230.758 746.879 228.247 746.879 225.426C746.879 222.605 747.548 220.094 748.887 217.895C750.226 215.695 752.007 213.962 754.231 212.694C756.454 211.427 758.881 210.794 761.511 210.794C763.472 210.794 765.289 211.081 766.962 211.654C768.636 212.228 770.094 213.041 771.338 214.093L769.544 216.388C768.54 215.575 767.369 214.906 766.03 214.38C764.691 213.854 763.256 213.591 761.726 213.591C759.622 213.591 757.698 214.117 755.952 215.169C754.207 216.221 752.82 217.644 751.792 219.437C750.764 221.23 750.25 223.226 750.25 225.426C750.25 227.578 750.764 229.55 751.792 231.343C752.82 233.136 754.231 234.559 756.024 235.611C757.817 236.663 759.813 237.189 762.013 237.189C763.448 237.189 764.787 236.962 766.03 236.508C767.273 236.053 768.397 235.444 769.401 234.679L771.266 236.759Z" fill="#ffffff" fill-rule="nonzero" opacity="1" stroke="none"/>
<path d="M783.244 252.969L801.534 211.439L804.834 211.439L786.759 252.969L783.244 252.969ZM789.556 239.771L776.287 211.439L780.088 211.439L792.21 237.978L789.556 239.771Z" fill="#ffffff" fill-rule="nonzero" opacity="1" stroke="none"/>
<path d="M836.967 188.559L865.514 188.559L865.514 191.93L840.482 191.93L840.482 212.946L862.645 212.946L862.645 216.245L840.482 216.245L840.482 239.484L836.967 239.484L836.967 188.559Z" fill="#ffffff" fill-rule="nonzero" opacity="1" stroke="none"/>
<path d="M869.1 225.282C869.1 222.557 869.758 220.07 871.073 217.823C872.388 215.575 874.181 213.794 876.452 212.479C878.724 211.164 881.27 210.507 884.091 210.507C886.96 210.507 889.518 211.164 891.766 212.479C894.013 213.794 895.782 215.575 897.074 217.823C898.365 220.07 899.01 222.557 899.01 225.282C899.01 228.008 898.365 230.495 897.074 232.742C895.782 234.989 894.001 236.771 891.73 238.086C889.459 239.401 886.912 240.058 884.091 240.058C881.222 240.058 878.664 239.424 876.416 238.157C874.169 236.89 872.388 235.145 871.073 232.921C869.758 230.698 869.1 228.151 869.1 225.282ZM872.471 225.354C872.471 227.554 872.986 229.55 874.014 231.343C875.042 233.136 876.428 234.559 878.174 235.611C879.919 236.663 881.868 237.189 884.019 237.189C886.171 237.189 888.12 236.663 889.865 235.611C891.61 234.559 892.997 233.136 894.025 231.343C895.053 229.55 895.567 227.554 895.567 225.354C895.567 223.155 895.053 221.158 894.025 219.365C892.997 217.572 891.61 216.137 889.865 215.061C888.12 213.986 886.171 213.448 884.019 213.448C881.82 213.448 879.847 214.009 878.102 215.133C876.357 216.257 874.982 217.727 873.978 219.544C872.974 221.361 872.471 223.298 872.471 225.354Z" fill="#ffffff" fill-rule="nonzero" opacity="1" stroke="none"/>
<path d="M911.993 211.439L912.351 220.046L911.921 218.971C912.543 217.249 913.523 215.767 914.862 214.524C916.201 213.28 917.695 212.324 919.345 211.654C920.994 210.985 922.584 210.65 924.114 210.65L923.971 213.95C921.819 213.95 919.871 214.428 918.125 215.384C916.38 216.341 914.993 217.62 913.965 219.222C912.937 220.823 912.423 222.629 912.423 224.637L912.423 239.484L909.052 239.484L909.052 211.439L911.993 211.439Z" fill="#ffffff" fill-rule="nonzero" opacity="1" stroke="none"/>
<path d="M954.096 214.093C954.096 210.507 954.765 207.148 956.104 204.016C957.443 200.884 959.308 198.11 961.699 195.695C964.09 193.281 966.851 191.392 969.983 190.029C973.115 188.666 976.474 187.985 980.061 187.985C983.647 187.985 987.018 188.666 990.174 190.029C993.33 191.392 996.104 193.281 998.494 195.695C1000.89 198.11 1002.76 200.884 1004.12 204.016C1005.49 207.148 1006.17 210.507 1006.17 214.093C1006.17 217.679 1005.49 221.039 1004.12 224.171C1002.76 227.303 1000.89 230.064 998.494 232.455C996.104 234.846 993.33 236.711 990.174 238.05C987.018 239.389 983.647 240.058 980.061 240.058C976.474 240.058 973.115 239.413 969.983 238.121C966.851 236.83 964.09 235.013 961.699 232.67C959.308 230.327 957.443 227.578 956.104 224.422C954.765 221.266 954.096 217.823 954.096 214.093ZM957.682 214.165C957.682 217.273 958.256 220.19 959.404 222.915C960.551 225.641 962.153 228.032 964.209 230.088C966.265 232.144 968.644 233.758 971.346 234.93C974.048 236.101 976.929 236.687 979.989 236.687C983.145 236.687 986.086 236.101 988.811 234.93C991.537 233.758 993.928 232.144 995.984 230.088C998.04 228.032 999.654 225.641 1000.83 222.915C1002 220.19 1002.58 217.249 1002.58 214.093C1002.58 210.985 1002 208.056 1000.83 205.307C999.654 202.557 998.04 200.142 995.984 198.062C993.928 195.982 991.537 194.345 988.811 193.149C986.086 191.954 983.169 191.356 980.061 191.356C976.905 191.356 973.964 191.966 971.238 193.185C968.513 194.404 966.134 196.066 964.102 198.17C962.069 200.274 960.491 202.701 959.368 205.45C958.244 208.2 957.682 211.105 957.682 214.165Z" fill="#ffffff" fill-rule="nonzero" opacity="1" stroke="none"/>
<path d="M1017.43 184.972L1020.8 184.972L1020.8 239.484L1017.43 239.484L1017.43 184.972Z" fill="#ffffff" fill-rule="nonzero" opacity="1" stroke="none"/>
<path d="M1045.04 240.058C1042.41 240.058 1040.02 239.424 1037.87 238.157C1035.72 236.89 1034.01 235.133 1032.74 232.885C1031.48 230.638 1030.84 228.104 1030.84 225.282C1030.84 222.27 1031.49 219.664 1032.78 217.464C1034.07 215.265 1035.83 213.567 1038.05 212.372C1040.27 211.176 1042.73 210.579 1045.4 210.579C1048.08 210.579 1050.63 211.272 1053.04 212.659C1055.46 214.045 1057.21 215.862 1058.31 218.11L1057.74 219.688L1057.74 184.972L1061.11 184.972L1061.11 239.484L1057.67 239.484L1057.67 230.877L1058.39 232.455C1057.19 234.702 1055.4 236.532 1053.01 237.942C1050.62 239.353 1047.96 240.058 1045.04 240.058ZM1045.91 237.117C1048.06 237.117 1049.99 236.651 1051.72 235.719C1053.44 234.786 1054.82 233.519 1055.88 231.917C1056.93 230.315 1057.53 228.51 1057.67 226.502L1057.67 222.915C1057.33 221.098 1056.59 219.473 1055.45 218.038C1054.3 216.604 1052.91 215.468 1051.28 214.631C1049.66 213.794 1047.87 213.376 1045.91 213.376C1043.75 213.376 1041.79 213.878 1040.02 214.882C1038.25 215.886 1036.84 217.273 1035.79 219.042C1034.74 220.812 1034.21 222.868 1034.21 225.211C1034.21 227.41 1034.74 229.407 1035.79 231.2C1036.84 232.993 1038.27 234.428 1040.06 235.503C1041.85 236.579 1043.8 237.117 1045.91 237.117Z" fill="#ffffff" fill-rule="nonzero" opacity="1" stroke="none"/>
<path d="M1086.07 240.058C1083.16 240.058 1080.57 239.413 1078.33 238.121C1076.08 236.83 1074.32 235.073 1073.05 232.85C1071.79 230.626 1071.15 228.128 1071.15 225.354C1071.15 222.629 1071.82 220.142 1073.16 217.895C1074.5 215.647 1076.31 213.854 1078.58 212.515C1080.85 211.176 1083.37 210.507 1086.14 210.507C1089.49 210.507 1092.3 211.487 1094.57 213.448C1096.84 215.408 1098.48 217.966 1099.48 221.122L1074.95 230.59L1073.95 228.151L1096.4 219.401L1095.68 220.405C1094.87 218.492 1093.64 216.843 1091.99 215.456C1090.34 214.069 1088.32 213.376 1085.93 213.376C1083.78 213.376 1081.84 213.902 1080.12 214.954C1078.4 216.006 1077.02 217.416 1075.99 219.186C1074.97 220.955 1074.45 222.963 1074.45 225.211C1074.45 227.315 1074.94 229.275 1075.92 231.092C1076.9 232.909 1078.28 234.368 1080.05 235.468C1081.82 236.567 1083.85 237.117 1086.14 237.117C1087.67 237.117 1089.14 236.83 1090.56 236.257C1091.97 235.683 1093.22 234.942 1094.32 234.033L1096.04 236.472C1094.7 237.524 1093.16 238.384 1091.42 239.054C1089.67 239.723 1087.89 240.058 1086.07 240.058Z" fill="#ffffff" fill-rule="nonzero" opacity="1" stroke="none"/>
<path d="M1111.75 211.439L1112.11 220.046L1111.68 218.971C1112.3 217.249 1113.28 215.767 1114.62 214.524C1115.96 213.28 1117.45 212.324 1119.1 211.654C1120.75 210.985 1122.34 210.65 1123.87 210.65L1123.73 213.95C1121.58 213.95 1119.63 214.428 1117.88 215.384C1116.14 216.341 1114.75 217.62 1113.72 219.222C1112.69 220.823 1112.18 222.629 1112.18 224.637L1112.18 239.484L1108.81 239.484L1108.81 211.439L1111.75 211.439Z" fill="#ffffff" fill-rule="nonzero" opacity="1" stroke="none"/>
<path d="M1152.63 239.484L1174.15 186.335L1174.44 186.335L1195.96 239.484L1192.01 239.484L1173.29 191.93L1175.73 190.567L1156.15 239.484L1152.63 239.484ZM1163.04 219.329L1185.63 219.329L1186.63 222.629L1162.18 222.629L1163.04 219.329Z" fill="#ffffff" fill-rule="nonzero" opacity="1" stroke="none"/>
<path d="M1217.12 240.058C1214.49 240.058 1212.1 239.424 1209.95 238.157C1207.79 236.89 1206.08 235.133 1204.82 232.885C1203.55 230.638 1202.92 228.104 1202.92 225.282C1202.92 222.27 1203.56 219.664 1204.85 217.464C1206.14 215.265 1207.9 213.567 1210.13 212.372C1212.35 211.176 1214.8 210.579 1217.48 210.579C1220.15 210.579 1222.7 211.272 1225.12 212.659C1227.53 214.045 1229.29 215.862 1230.39 218.11L1229.81 219.688L1229.81 184.972L1233.18 184.972L1233.18 239.484L1229.74 239.484L1229.74 230.877L1230.46 232.455C1229.26 234.702 1227.47 236.532 1225.08 237.942C1222.69 239.353 1220.04 240.058 1217.12 240.058ZM1217.98 237.117C1220.13 237.117 1222.07 236.651 1223.79 235.719C1225.51 234.786 1226.9 233.519 1227.95 231.917C1229 230.315 1229.6 228.51 1229.74 226.502L1229.74 222.915C1229.41 221.098 1228.67 219.473 1227.52 218.038C1226.37 216.604 1224.98 215.468 1223.36 214.631C1221.73 213.794 1219.94 213.376 1217.98 213.376C1215.83 213.376 1213.87 213.878 1212.1 214.882C1210.33 215.886 1208.92 217.273 1207.87 219.042C1206.81 220.812 1206.29 222.868 1206.29 225.211C1206.29 227.41 1206.81 229.407 1207.87 231.2C1208.92 232.993 1210.34 234.428 1212.13 235.503C1213.93 236.579 1215.88 237.117 1217.98 237.117Z" fill="#ffffff" fill-rule="nonzero" opacity="1" stroke="none"/>
<path d="M1254.77 240.273C1252.14 240.273 1250.04 239.496 1248.46 237.942C1246.88 236.388 1246.05 234.368 1245.95 231.881L1245.95 211.439L1249.32 211.439L1249.32 230.877C1249.42 232.694 1250 234.2 1251.08 235.396C1252.16 236.591 1253.77 237.237 1255.92 237.332C1257.74 237.332 1259.44 236.854 1261.01 235.898C1262.59 234.942 1263.87 233.639 1264.85 231.989C1265.83 230.339 1266.32 228.462 1266.32 226.358L1266.32 211.439L1269.69 211.439L1269.69 239.484L1266.68 239.484L1266.32 230.662L1266.82 232.599C1266.35 234.033 1265.5 235.336 1264.28 236.508C1263.06 237.679 1261.62 238.6 1259.97 239.269C1258.33 239.939 1256.59 240.273 1254.77 240.273Z" fill="#ffffff" fill-rule="nonzero" opacity="1" stroke="none"/>
<path d="M1282.46 184.972L1285.83 184.972L1285.83 239.484L1282.46 239.484L1282.46 184.972Z" fill="#ffffff" fill-rule="nonzero" opacity="1" stroke="none"/>
<path d="M1301.4 199.102L1304.84 199.102L1304.84 211.798L1313.52 211.798L1313.52 214.524L1304.84 214.524L1304.84 239.484L1301.4 239.484L1301.4 214.524L1295.44 214.524L1295.44 211.798L1301.4 211.798L1301.4 199.102Z" fill="#ffffff" fill-rule="nonzero" opacity="1" stroke="none"/>
<path d="M1328.51 240.058C1326.88 240.058 1325.19 239.759 1323.42 239.161C1321.65 238.564 1320.21 237.595 1319.11 236.257L1320.69 234.033C1321.65 235.037 1322.78 235.838 1324.1 236.436C1325.41 237.034 1326.81 237.332 1328.29 237.332C1329.39 237.332 1330.43 237.177 1331.41 236.866C1332.39 236.555 1333.2 236.017 1333.82 235.252C1334.44 234.487 1334.75 233.459 1334.75 232.168C1334.75 230.829 1334.38 229.801 1333.64 229.084C1332.9 228.367 1331.96 227.781 1330.84 227.327C1329.72 226.872 1328.53 226.454 1327.29 226.071C1325.23 225.402 1323.55 224.493 1322.23 223.346C1320.92 222.198 1320.26 220.572 1320.26 218.468C1320.26 216.938 1320.63 215.599 1321.37 214.452C1322.11 213.304 1323.13 212.408 1324.42 211.762C1325.71 211.117 1327.17 210.794 1328.8 210.794C1330.28 210.794 1331.75 211.033 1333.21 211.511C1334.67 211.989 1335.99 212.802 1337.19 213.95L1335.68 216.317C1334.92 215.265 1333.9 214.547 1332.63 214.165C1331.37 213.782 1330.25 213.567 1329.3 213.519C1328.49 213.519 1327.64 213.687 1326.75 214.021C1325.87 214.356 1325.13 214.846 1324.53 215.492C1323.93 216.137 1323.63 216.986 1323.63 218.038C1323.63 219.138 1323.94 220.034 1324.56 220.728C1325.19 221.421 1325.99 221.983 1326.97 222.413C1327.95 222.844 1328.96 223.25 1330.02 223.633C1331.4 224.063 1332.71 224.577 1333.92 225.175C1335.14 225.773 1336.15 226.562 1336.94 227.542C1337.73 228.522 1338.12 229.825 1338.12 231.451C1338.12 233.077 1337.76 234.547 1337.04 235.862C1336.33 237.177 1335.26 238.205 1333.85 238.946C1332.44 239.687 1330.66 240.058 1328.51 240.058Z" fill="#ffffff" fill-rule="nonzero" opacity="1" stroke="none"/>
</g>
</g>
<g id="Icon" vectornator:layerName="Icon">
<path d="M153.183 17.0621C77.5485 16.9912 16.1693 77.4532 16.0993 152.097C16.0293 226.752 77.2951 287.319 152.93 287.389C228.574 287.46 289.943 227.008 290.013 152.354C290.083 77.71 228.828 17.133 153.183 17.0621ZM70.9047 230.3C65.5924 224.852 60.8525 218.873 56.7327 212.459C76.5898 195.944 102.2 185.969 130.197 185.995L175.852 186.038C210.981 186.071 242.905 172.936 267.142 151.474C267.142 151.772 267.186 152.046 267.186 152.333C267.176 163.001 265.56 173.275 262.744 183.051C237.696 199.143 207.896 208.597 175.831 208.566L130.176 208.524C107.53 208.502 86.8797 216.775 70.9047 230.3ZM46.333 191.867C43.4776 184.387 41.4237 176.532 40.2364 168.39C65.8979 151.066 96.8837 140.9 130.24 140.932L175.894 140.975C208.538 141.005 237.219 124.005 253.383 98.501C257.656 106.25 260.901 114.603 263.248 123.316C242.305 147.89 210.958 163.536 175.873 163.503L130.218 163.46C98.5779 163.427 69.5193 174.091 46.333 191.867ZM238.601 77.8409C228.012 101.708 203.957 118.472 175.915 118.446L130.261 118.403C97.2266 118.372 66.2216 127.088 39.4357 142.286C40.325 132.356 42.5629 122.829 45.8823 113.813C71.6581 102.311 100.209 95.8467 130.282 95.8749L175.936 95.9177C197.456 95.9379 215.438 81.1374 220.261 61.3303C226.967 66.1687 233.111 71.6959 238.601 77.8409ZM153.162 39.5871C169.402 39.6023 184.823 43.0162 198.804 49.0677L198.803 50.862C198.791 63.2903 188.54 73.4045 175.957 73.3927L130.303 73.3499C106.753 73.3278 84.0901 77.01 62.7084 83.5894C83.5989 56.8465 116.303 39.5526 153.162 39.5871ZM152.951 264.861C129.045 264.839 106.882 257.539 88.548 245.124C100.105 236.336 114.487 231.034 130.155 231.049L175.81 231.092C200.808 231.115 224.609 226.055 246.318 217.033C225.638 245.969 191.559 264.897 152.951 264.861Z" fill="#ffffff" fill-rule="nonzero" opacity="1" stroke="none"/>
</g>
</svg>
